<svg xmlns="http://www.w3.org/2000/svg" xmlns:xlink="http://www.w3.org/1999/xlink" width="500" zoomAndPan="magnify" viewBox="0 0 375 374.999991" height="500" preserveAspectRatio="xMidYMid meet" version="1.2"><defs/><g id="acf31102ef"><path style=" stroke:none;fill-rule:nonzero;fill:#ffffff;fill-opacity:1;" d="M 88.03125 201.429688 C 84.832031 204.707031 79.851562 199.851562 83.046875 196.5625 C 86.246094 193.285156 91.226562 198.148438 88.03125 201.429688 Z M 160.695312 196.964844 C 159.316406 203.46875 156.539062 209.742188 152.363281 215.296875 C 155.160156 218.53125 151.03125 223.164062 147.5 220.816406 C 143.890625 224.320312 139.847656 227.132812 135.558594 229.246094 C 137.007812 235.238281 128.523438 238.195312 125.863281 232.714844 C 122.558594 233.519531 119.144531 233.976562 115.675781 234.039062 C 113.886719 238.382812 107.453125 237.820312 106.40625 233.285156 C 101.773438 232.433594 97.085938 230.824219 92.992188 228.679688 C 88.996094 231.988281 83.164062 228.117188 84.75 223.171875 C 79.652344 218.90625 75.558594 213.65625 72.664062 207.742188 C 67.421875 208.710938 64.71875 201.527344 69.367188 198.828125 C 68.09375 193.902344 67.613281 188.722656 68.03125 183.484375 C 62.59375 181.808594 63.964844 173.386719 69.859375 173.726562 C 72.648438 164.390625 78.101562 156.550781 85.152344 150.816406 C 82.089844 144.832031 89.855469 138.882812 94.800781 143.703125 C 95.042969 143.9375 95.25 144.1875 95.449219 144.449219 C 102.910156 141.0625 111.289062 139.609375 119.796875 140.542969 C 121.382812 136.382812 127.636719 137.613281 127.546875 142.046875 C 129.796875 142.671875 132.011719 143.480469 134.160156 144.457031 C 136.292969 142.191406 139.964844 144.25 139.277344 147.164062 C 140.496094 147.90625 141.695312 148.730469 142.867188 149.609375 C 145.65625 151.6875 148.242188 154.113281 150.492188 156.738281 C 152.929688 155.808594 155.242188 158.738281 153.664062 160.886719 C 155.285156 163.28125 156.664062 165.789062 157.804688 168.386719 C 161.871094 167.785156 163.867188 173.386719 160.242188 175.445312 C 161.234375 179.316406 161.726562 183.292969 161.71875 187.273438 C 167.300781 188.554688 166.421875 196.886719 160.695312 196.964844 Z M 148.988281 160.402344 C 147.132812 160.636719 145.277344 160.960938 143.441406 161.34375 C 143.523438 162.195312 143.425781 163.066406 143.144531 163.878906 C 147.3125 165.5 151.363281 167.554688 155.214844 170.015625 L 156.191406 169.039062 C 155.5625 167.617188 154.863281 166.21875 154.101562 164.867188 C 153.53125 163.851562 152.910156 162.859375 152.257812 161.890625 C 151.003906 162.265625 149.542969 161.640625 148.988281 160.402344 Z M 110.910156 181.324219 C 116.375 183.292969 121.664062 185.980469 126.625 189.394531 C 126.832031 189.214844 127.054688 189.0625 127.28125 188.9375 C 125.390625 183.722656 122.84375 178.691406 119.636719 173.984375 C 118.652344 174.417969 117.488281 174.316406 116.574219 173.679688 C 114.421875 175.320312 112.355469 177.105469 110.375 179.03125 C 110.804688 179.730469 110.984375 180.535156 110.910156 181.324219 Z M 131.5 160.484375 C 131.597656 160.0625 131.75 159.640625 131.945312 159.25 C 126.6875 155.898438 121.070312 153.34375 115.273438 151.589844 C 114.011719 153.28125 112.835938 155.019531 111.753906 156.785156 C 112.585938 157.367188 113.230469 158.21875 113.535156 159.273438 C 119.546875 158.90625 125.585938 159.3125 131.5 160.484375 Z M 131.328125 162.167969 C 125.523438 160.996094 119.601562 160.59375 113.707031 160.960938 C 113.644531 161.746094 113.382812 162.519531 112.9375 163.207031 C 114.496094 164.785156 115.964844 166.414062 117.34375 168.101562 C 118.4375 167.722656 119.726562 167.957031 120.597656 168.835938 C 124.082031 166.640625 127.726562 164.777344 131.472656 163.253906 C 131.390625 162.902344 131.347656 162.535156 131.328125 162.167969 Z M 104.515625 162.167969 C 93.609375 164.355469 83.15625 169.246094 74.214844 176.808594 C 74.429688 177.320312 74.554688 177.867188 74.582031 178.410156 C 84.292969 176.601562 94.28125 176.851562 103.941406 179.226562 C 104.101562 178.921875 104.308594 178.636719 104.558594 178.386719 C 105.804688 177.113281 107.75 176.925781 109.191406 177.839844 C 111.207031 175.875 113.3125 174.058594 115.5 172.390625 C 115.015625 171.316406 115.15625 170.015625 115.957031 169.078125 C 114.648438 167.480469 113.25 165.933594 111.769531 164.433594 C 109.261719 166.253906 105.535156 165.082031 104.515625 162.167969 Z M 128.890625 188.429688 C 129.484375 188.367188 130.074219 188.4375 130.648438 188.625 C 133.703125 182.011719 135.648438 175.015625 136.453125 167.921875 C 134.671875 167.644531 132.960938 166.460938 132.074219 164.828125 C 128.410156 166.316406 124.851562 168.136719 121.445312 170.292969 C 121.671875 171.183594 121.511719 172.140625 120.964844 172.917969 C 124.296875 177.800781 126.9375 183.015625 128.890625 188.429688 Z M 132.109375 189.484375 C 132.511719 189.851562 132.824219 190.28125 133.050781 190.738281 C 136.148438 189.394531 139.160156 187.820312 142.0625 186 C 141.710938 179.855469 140.539062 173.761719 138.53125 167.886719 C 138.40625 167.910156 138.28125 167.929688 138.15625 167.949219 C 137.324219 175.339844 135.308594 182.621094 132.109375 189.484375 Z M 133.050781 194.386719 C 135.683594 196.6875 138.101562 199.152344 140.304688 201.742188 C 140.574219 201.625 140.863281 201.5625 141.15625 201.542969 C 141.945312 197.039062 142.269531 192.476562 142.144531 187.933594 C 139.339844 189.636719 136.445312 191.125 133.460938 192.398438 C 133.488281 193.078125 133.355469 193.757812 133.050781 194.386719 Z M 143.683594 184.960938 C 146.515625 183.070312 149.230469 180.957031 151.792969 178.601562 C 148.84375 174.238281 145.339844 170.132812 141.390625 166.503906 C 140.996094 166.84375 140.574219 167.132812 140.125 167.355469 C 142.070312 173.070312 143.261719 178.984375 143.683594 184.960938 Z M 153.035156 177.425781 C 153.933594 176.566406 154.8125 175.679688 155.664062 174.757812 C 154.882812 173.941406 154.433594 172.804688 154.605469 171.613281 C 150.859375 169.191406 146.9375 167.175781 142.886719 165.582031 C 146.730469 169.175781 150.144531 173.179688 153.035156 177.425781 Z M 137.707031 149.152344 C 138.066406 151.410156 138.316406 153.675781 138.453125 155.941406 C 140.457031 156.292969 142.296875 157.777344 143.046875 159.707031 C 144.957031 159.300781 146.875 158.96875 148.800781 158.730469 C 148.863281 158.414062 148.988281 158.101562 149.167969 157.824219 C 146.113281 154.222656 142.472656 151.113281 138.441406 148.632812 C 138.21875 148.847656 137.976562 149.027344 137.707031 149.152344 Z M 126.8125 144.285156 C 130.082031 148.039062 132.878906 152.054688 135.207031 156.265625 C 135.710938 156.066406 136.230469 155.941406 136.765625 155.886719 C 136.632812 153.730469 136.390625 151.589844 136.050781 149.445312 C 134.375 149.269531 133.148438 147.621094 133.425781 145.972656 C 131.425781 145.066406 129.339844 144.304688 127.171875 143.6875 C 127.066406 143.890625 126.949219 144.097656 126.8125 144.285156 Z M 116.375 150.164062 C 122.117188 151.964844 127.683594 154.527344 132.90625 157.851562 L 133.746094 157.078125 C 131.480469 152.976562 128.757812 149.070312 125.585938 145.425781 C 124.035156 146.328125 122.183594 146.007812 120.945312 144.949219 Z M 96.261719 145.960938 C 96.386719 146.300781 96.476562 146.652344 96.539062 147.011719 C 102.632812 147.089844 108.726562 147.96875 114.636719 149.652344 L 119.898438 143.597656 C 119.699219 143.175781 119.582031 142.71875 119.546875 142.226562 C 111.617188 141.402344 103.609375 142.65625 96.261719 145.960938 Z M 96.046875 150.65625 C 99.460938 152.464844 102.757812 154.570312 105.894531 156.992188 C 107.148438 155.914062 108.777344 155.664062 110.222656 156.066406 C 111.25 154.375 112.355469 152.71875 113.546875 151.09375 C 108 149.574219 102.300781 148.773438 96.59375 148.695312 C 96.53125 149.367188 96.34375 150.027344 96.046875 150.65625 Z M 71.5625 174.128906 L 73.300781 175.375 C 82.449219 167.6875 93.128906 162.722656 104.246094 160.503906 C 104.261719 159.742188 104.460938 158.980469 104.835938 158.296875 C 101.746094 155.914062 98.492188 153.835938 95.117188 152.070312 C 92.769531 154.734375 88.621094 154.8125 86.164062 152.242188 C 79.257812 157.921875 74.027344 165.921875 71.5625 174.128906 Z M 104.238281 183.1875 C 103.726562 182.496094 103.484375 181.671875 103.5 180.847656 C 93.925781 178.5 83.996094 178.296875 74.375 180.160156 C 73.738281 182.300781 71.757812 183.617188 69.707031 183.699219 C 69.324219 188.671875 69.769531 193.578125 70.960938 198.257812 C 76.148438 197.359375 78.820312 204.421875 74.25 207.144531 C 76.972656 212.671875 80.800781 217.597656 85.539062 221.628906 C 86.253906 220.652344 87.320312 219.917969 88.636719 219.652344 C 90.125 206.597656 95.320312 193.875 104.238281 183.1875 Z M 94.550781 222.976562 C 107.570312 217.722656 119.214844 207.984375 126.761719 195.835938 C 125.191406 194.609375 124.742188 192.441406 125.585938 190.730469 C 120.773438 187.433594 115.660156 184.835938 110.363281 182.925781 C 109.351562 184.566406 107.183594 185.132812 105.519531 184.28125 C 96.882812 194.636719 91.828125 206.945312 90.332031 219.589844 C 92.203125 219.820312 93.914062 221.183594 94.550781 222.976562 Z M 129.582031 196.707031 C 129.144531 196.734375 128.703125 196.699219 128.28125 196.582031 C 120.488281 209.203125 108.394531 219.285156 94.855469 224.667969 C 94.867188 225.679688 94.597656 226.59375 94.121094 227.363281 C 97.859375 229.28125 102.105469 230.742188 106.304688 231.546875 C 107.085938 225.464844 116.242188 226.207031 116.027344 232.347656 C 119.207031 232.257812 122.34375 231.835938 125.390625 231.101562 C 125.09375 228.402344 126.992188 225.636719 130.011719 225.332031 C 131.902344 215.871094 131.75 206.105469 129.582031 196.707031 Z M 132.019531 225.527344 C 135.691406 219.613281 138.363281 213.261719 140.046875 206.714844 C 138.667969 205.96875 138.199219 204.140625 139.015625 202.835938 C 136.882812 200.324219 134.554688 197.953125 132.011719 195.730469 C 131.757812 195.945312 131.492188 196.125 131.203125 196.277344 C 133.425781 205.855469 133.605469 215.816406 131.714844 225.457031 C 131.8125 225.464844 131.921875 225.492188 132.019531 225.527344 Z M 147.1875 214.867188 C 145.726562 212.125 144.070312 209.457031 142.214844 206.902344 C 142.042969 206.957031 141.875 207 141.703125 207.019531 C 140 213.71875 137.277344 220.222656 133.542969 226.28125 L 134.851562 227.660156 C 139.0625 225.574219 142.929688 222.839844 146.316406 219.550781 C 145.457031 218.027344 145.78125 216.023438 147.1875 214.867188 Z M 158.96875 196.679688 C 155.617188 195.480469 154.605469 190.929688 157.3125 188.445312 C 156.011719 185.578125 154.480469 182.757812 152.734375 180.035156 C 149.910156 182.597656 146.917969 184.890625 143.792969 186.914062 C 144.007812 191.929688 143.675781 196.976562 142.796875 201.957031 C 144.148438 202.789062 144.507812 204.652344 143.578125 205.917969 C 145.484375 208.550781 147.195312 211.292969 148.691406 214.121094 C 149.433594 213.945312 150.222656 214.007812 150.941406 214.292969 C 154.710938 209.265625 157.578125 203.085938 158.96875 196.679688 Z M 159.988281 187.191406 C 159.988281 183.347656 159.503906 179.578125 158.574219 175.9375 C 158.054688 175.964844 157.542969 175.886719 157.085938 175.707031 C 156.082031 176.800781 155.042969 177.847656 153.988281 178.859375 C 155.796875 181.664062 157.390625 184.566406 158.742188 187.53125 C 159.148438 187.363281 159.566406 187.246094 159.988281 187.191406 Z M 151.496094 199.949219 C 149.175781 199.304688 148.199219 202.84375 150.519531 203.488281 C 152.832031 204.132812 153.816406 200.59375 151.496094 199.949219 Z M 116.527344 197.816406 C 119.519531 198.292969 120.246094 193.730469 117.253906 193.257812 C 114.261719 192.78125 113.535156 197.34375 116.527344 197.816406 Z M 116.941406 217.042969 C 113.152344 215.996094 111.546875 221.773438 115.347656 222.824219 C 119.136719 223.871094 120.730469 218.09375 116.941406 217.042969 Z M 99.148438 167.886719 C 95.957031 166.996094 94.605469 171.871094 97.804688 172.757812 C 100.992188 173.636719 102.335938 168.761719 99.148438 167.886719 Z M 99.148438 167.886719 "/><path style="fill:none;stroke-width:3;stroke-linecap:butt;stroke-linejoin:miter;stroke:#ffffff;stroke-opacity:1;stroke-miterlimit:4;" d="M -0.00186739 1.501079 L 136.279421 1.501079 " transform="matrix(0.00000000130645,-0.748538,0.748538,0.00000000130645,175.384198,238.588446)"/><g style="fill:#ffffff;fill-opacity:1;"><g transform="translate(185.916539, 163.593724)"><path style="stroke:none" d="M 12.328125 -11.671875 L 24.21875 -11.671875 C 24.195312 -9.898438 23.910156 -8.273438 23.359375 -6.796875 C 22.804688 -5.328125 22.023438 -4.050781 21.015625 -2.96875 C 20.003906 -1.882812 18.800781 -1.035156 17.40625 -0.421875 C 16.019531 0.179688 14.488281 0.484375 12.8125 0.484375 C 11.175781 0.484375 9.65625 0.195312 8.25 -0.375 C 6.851562 -0.957031 5.628906 -1.765625 4.578125 -2.796875 C 3.523438 -3.835938 2.710938 -5.070312 2.140625 -6.5 C 1.566406 -7.925781 1.28125 -9.46875 1.28125 -11.125 C 1.28125 -12.800781 1.5625 -14.34375 2.125 -15.75 C 2.6875 -17.164062 3.484375 -18.398438 4.515625 -19.453125 C 5.546875 -20.503906 6.757812 -21.320312 8.15625 -21.90625 C 9.5625 -22.5 11.082031 -22.796875 12.71875 -22.796875 C 14.5625 -22.796875 16.269531 -22.429688 17.84375 -21.703125 C 19.414062 -20.984375 20.734375 -19.984375 21.796875 -18.703125 C 22.859375 -17.429688 23.5625 -15.957031 23.90625 -14.28125 L 18.9375 -14.28125 C 18.46875 -15.488281 17.679688 -16.441406 16.578125 -17.140625 C 15.472656 -17.847656 14.21875 -18.203125 12.8125 -18.203125 C 11.5 -18.203125 10.34375 -17.898438 9.34375 -17.296875 C 8.34375 -16.691406 7.5625 -15.863281 7 -14.8125 C 6.4375 -13.757812 6.15625 -12.53125 6.15625 -11.125 C 6.15625 -9.738281 6.429688 -8.519531 6.984375 -7.46875 C 7.535156 -6.414062 8.3125 -5.59375 9.3125 -5 C 10.3125 -4.40625 11.476562 -4.109375 12.8125 -4.109375 C 14.257812 -4.109375 15.554688 -4.457031 16.703125 -5.15625 C 17.847656 -5.863281 18.625 -6.789062 19.03125 -7.9375 L 12.328125 -7.9375 Z M 12.328125 -11.671875 "/></g></g><g style="fill:#ffffff;fill-opacity:1;"><g transform="translate(211.314681, 163.593724)"><path style="stroke:none" d="M 11.53125 0.484375 C 9.769531 0.484375 8.195312 0.109375 6.8125 -0.640625 C 5.4375 -1.398438 4.34375 -2.441406 3.53125 -3.765625 C 2.726562 -5.097656 2.328125 -6.640625 2.328125 -8.390625 L 2.328125 -22.3125 L 7.171875 -22.3125 L 7.171875 -8.609375 C 7.171875 -7.222656 7.578125 -6.117188 8.390625 -5.296875 C 9.210938 -4.484375 10.257812 -4.078125 11.53125 -4.078125 C 12.832031 -4.078125 13.890625 -4.484375 14.703125 -5.296875 C 15.523438 -6.117188 15.9375 -7.222656 15.9375 -8.609375 L 15.9375 -22.3125 L 20.75 -22.3125 L 20.75 -8.390625 C 20.75 -6.640625 20.347656 -5.097656 19.546875 -3.765625 C 18.753906 -2.441406 17.660156 -1.398438 16.265625 -0.640625 C 14.878906 0.109375 13.300781 0.484375 11.53125 0.484375 Z M 11.53125 0.484375 "/></g></g><g style="fill:#ffffff;fill-opacity:1;"><g transform="translate(234.386519, 163.593724)"><path style="stroke:none" d="M 7.390625 -4.5 L 15.9375 -4.5 L 15.9375 0 L 2.546875 0 L 2.546875 -22.3125 L 7.390625 -22.3125 Z M 7.390625 -4.5 "/></g></g><g style="fill:#ffffff;fill-opacity:1;"><g transform="translate(251.021187, 163.593724)"><path style="stroke:none" d="M 15.875 -17.8125 L 7.390625 -17.8125 L 7.390625 -12.90625 L 15.046875 -12.90625 L 15.046875 -8.546875 L 7.390625 -8.546875 L 7.390625 0 L 2.546875 0 L 2.546875 -22.3125 L 15.875 -22.3125 Z M 15.875 -17.8125 "/></g></g><g style="fill:#ffffff;fill-opacity:1;"><g transform="translate(185.916539, 195.86245)"><path style="stroke:none" d="M 12.328125 -11.671875 L 24.21875 -11.671875 C 24.195312 -9.898438 23.910156 -8.273438 23.359375 -6.796875 C 22.804688 -5.328125 22.023438 -4.050781 21.015625 -2.96875 C 20.003906 -1.882812 18.800781 -1.035156 17.40625 -0.421875 C 16.019531 0.179688 14.488281 0.484375 12.8125 0.484375 C 11.175781 0.484375 9.65625 0.195312 8.25 -0.375 C 6.851562 -0.957031 5.628906 -1.765625 4.578125 -2.796875 C 3.523438 -3.835938 2.710938 -5.070312 2.140625 -6.5 C 1.566406 -7.925781 1.28125 -9.46875 1.28125 -11.125 C 1.28125 -12.800781 1.5625 -14.34375 2.125 -15.75 C 2.6875 -17.164062 3.484375 -18.398438 4.515625 -19.453125 C 5.546875 -20.503906 6.757812 -21.320312 8.15625 -21.90625 C 9.5625 -22.5 11.082031 -22.796875 12.71875 -22.796875 C 14.5625 -22.796875 16.269531 -22.429688 17.84375 -21.703125 C 19.414062 -20.984375 20.734375 -19.984375 21.796875 -18.703125 C 22.859375 -17.429688 23.5625 -15.957031 23.90625 -14.28125 L 18.9375 -14.28125 C 18.46875 -15.488281 17.679688 -16.441406 16.578125 -17.140625 C 15.472656 -17.847656 14.21875 -18.203125 12.8125 -18.203125 C 11.5 -18.203125 10.34375 -17.898438 9.34375 -17.296875 C 8.34375 -16.691406 7.5625 -15.863281 7 -14.8125 C 6.4375 -13.757812 6.15625 -12.53125 6.15625 -11.125 C 6.15625 -9.738281 6.429688 -8.519531 6.984375 -7.46875 C 7.535156 -6.414062 8.3125 -5.59375 9.3125 -5 C 10.3125 -4.40625 11.476562 -4.109375 12.8125 -4.109375 C 14.257812 -4.109375 15.554688 -4.457031 16.703125 -5.15625 C 17.847656 -5.863281 18.625 -6.789062 19.03125 -7.9375 L 12.328125 -7.9375 Z M 12.328125 -11.671875 "/></g></g><g style="fill:#ffffff;fill-opacity:1;"><g transform="translate(211.314681, 195.86245)"><path style="stroke:none" d="M 11.53125 0.484375 C 9.769531 0.484375 8.195312 0.109375 6.8125 -0.640625 C 5.4375 -1.398438 4.34375 -2.441406 3.53125 -3.765625 C 2.726562 -5.097656 2.328125 -6.640625 2.328125 -8.390625 L 2.328125 -22.3125 L 7.171875 -22.3125 L 7.171875 -8.609375 C 7.171875 -7.222656 7.578125 -6.117188 8.390625 -5.296875 C 9.210938 -4.484375 10.257812 -4.078125 11.53125 -4.078125 C 12.832031 -4.078125 13.890625 -4.484375 14.703125 -5.296875 C 15.523438 -6.117188 15.9375 -7.222656 15.9375 -8.609375 L 15.9375 -22.3125 L 20.75 -22.3125 L 20.75 -8.390625 C 20.75 -6.640625 20.347656 -5.097656 19.546875 -3.765625 C 18.753906 -2.441406 17.660156 -1.398438 16.265625 -0.640625 C 14.878906 0.109375 13.300781 0.484375 11.53125 0.484375 Z M 11.53125 0.484375 "/></g></g><g style="fill:#ffffff;fill-opacity:1;"><g transform="translate(234.386519, 195.86245)"><path style="stroke:none" d="M 17.375 0 L 15.8125 -4.234375 L 6.921875 -4.234375 L 5.390625 0 L 0.28125 0 L 9.015625 -22.3125 L 13.578125 -22.3125 L 22.59375 0 Z M 11.34375 -16.421875 L 8.453125 -8.453125 L 14.28125 -8.453125 Z M 11.34375 -16.421875 "/></g></g><g style="fill:#ffffff;fill-opacity:1;"><g transform="translate(257.267159, 195.86245)"><path style="stroke:none" d="M 14.828125 0 L 10.484375 -7.625 L 7.390625 -7.625 L 7.390625 0 L 2.546875 0 L 2.546875 -22.3125 L 11.578125 -22.3125 C 13.054688 -22.3125 14.378906 -21.992188 15.546875 -21.359375 C 16.722656 -20.722656 17.648438 -19.847656 18.328125 -18.734375 C 19.003906 -17.628906 19.34375 -16.359375 19.34375 -14.921875 C 19.34375 -13.472656 18.976562 -12.179688 18.25 -11.046875 C 17.519531 -9.910156 16.535156 -9.046875 15.296875 -8.453125 L 20.234375 0 Z M 7.390625 -17.84375 L 7.390625 -12.078125 L 11.25 -12.078125 C 12.25 -12.078125 13.035156 -12.347656 13.609375 -12.890625 C 14.179688 -13.429688 14.46875 -14.117188 14.46875 -14.953125 C 14.46875 -15.796875 14.179688 -16.488281 13.609375 -17.03125 C 13.035156 -17.570312 12.25 -17.84375 11.25 -17.84375 Z M 7.390625 -17.84375 "/></g></g><g style="fill:#ffffff;fill-opacity:1;"><g transform="translate(278.331366, 195.86245)"><path style="stroke:none" d="M 11 -22.3125 C 12.632812 -22.3125 14.140625 -22.035156 15.515625 -21.484375 C 16.898438 -20.929688 18.097656 -20.15625 19.109375 -19.15625 C 20.117188 -18.15625 20.90625 -16.976562 21.46875 -15.625 C 22.03125 -14.28125 22.3125 -12.800781 22.3125 -11.1875 C 22.3125 -9.570312 22.03125 -8.082031 21.46875 -6.71875 C 20.90625 -5.363281 20.117188 -4.179688 19.109375 -3.171875 C 18.097656 -2.160156 16.898438 -1.378906 15.515625 -0.828125 C 14.140625 -0.273438 12.632812 0 11 0 L 2.546875 0 L 2.546875 -22.3125 Z M 10.875 -4.5 C 12.144531 -4.5 13.269531 -4.785156 14.25 -5.359375 C 15.226562 -5.929688 15.992188 -6.722656 16.546875 -7.734375 C 17.097656 -8.742188 17.375 -9.894531 17.375 -11.1875 C 17.375 -12.476562 17.097656 -13.625 16.546875 -14.625 C 15.992188 -15.625 15.226562 -16.40625 14.25 -16.96875 C 13.269531 -17.53125 12.144531 -17.8125 10.875 -17.8125 L 7.390625 -17.8125 L 7.390625 -4.5 Z M 10.875 -4.5 "/></g></g><g style="fill:#ffffff;fill-opacity:1;"><g transform="translate(185.916539, 228.131176)"><path style="stroke:none" d="M 17.953125 -22.3125 L 17.953125 -17.8125 L 11.734375 -17.8125 L 11.734375 0 L 6.890625 0 L 6.890625 -17.8125 L 0.703125 -17.8125 L 0.703125 -22.3125 Z M 17.953125 -22.3125 "/></g></g><g style="fill:#ffffff;fill-opacity:1;"><g transform="translate(204.526971, 228.131176)"><path style="stroke:none" d="M 7.390625 -4.5 L 16.28125 -4.5 L 16.28125 0 L 2.546875 0 L 2.546875 -22.3125 L 15.9375 -22.3125 L 15.9375 -17.84375 L 7.390625 -17.84375 L 7.390625 -13.453125 L 15.109375 -13.453125 L 15.109375 -9.078125 L 7.390625 -9.078125 Z M 7.390625 -4.5 "/></g></g><g style="fill:#ffffff;fill-opacity:1;"><g transform="translate(222.34073, 228.131176)"><path style="stroke:none" d="M 12.78125 0.484375 C 11.144531 0.484375 9.625 0.191406 8.21875 -0.390625 C 6.820312 -0.984375 5.601562 -1.804688 4.5625 -2.859375 C 3.519531 -3.910156 2.710938 -5.140625 2.140625 -6.546875 C 1.566406 -7.960938 1.28125 -9.488281 1.28125 -11.125 C 1.28125 -12.78125 1.566406 -14.316406 2.140625 -15.734375 C 2.710938 -17.160156 3.519531 -18.398438 4.5625 -19.453125 C 5.601562 -20.503906 6.820312 -21.320312 8.21875 -21.90625 C 9.625 -22.5 11.144531 -22.796875 12.78125 -22.796875 C 14.582031 -22.796875 16.238281 -22.421875 17.75 -21.671875 C 19.257812 -20.929688 20.523438 -19.890625 21.546875 -18.546875 C 22.566406 -17.210938 23.25 -15.660156 23.59375 -13.890625 L 18.75 -13.890625 C 18.300781 -15.210938 17.546875 -16.257812 16.484375 -17.03125 C 15.421875 -17.8125 14.1875 -18.203125 12.78125 -18.203125 C 11.53125 -18.203125 10.40625 -17.882812 9.40625 -17.25 C 8.40625 -16.625 7.613281 -15.78125 7.03125 -14.71875 C 6.445312 -13.65625 6.15625 -12.457031 6.15625 -11.125 C 6.15625 -9.78125 6.445312 -8.582031 7.03125 -7.53125 C 7.613281 -6.476562 8.40625 -5.644531 9.40625 -5.03125 C 10.40625 -4.414062 11.53125 -4.109375 12.78125 -4.109375 C 14.25 -4.109375 15.515625 -4.519531 16.578125 -5.34375 C 17.640625 -6.175781 18.375 -7.304688 18.78125 -8.734375 L 23.65625 -8.734375 C 23.3125 -6.878906 22.632812 -5.257812 21.625 -3.875 C 20.613281 -2.5 19.347656 -1.425781 17.828125 -0.65625 C 16.316406 0.101562 14.632812 0.484375 12.78125 0.484375 Z M 12.78125 0.484375 "/></g></g><g style="fill:#ffffff;fill-opacity:1;"><g transform="translate(246.91033, 228.131176)"><path style="stroke:none" d="M 15.78125 -22.3125 L 20.59375 -22.3125 L 20.59375 0 L 15.78125 0 L 15.78125 -9.21875 L 7.390625 -9.21875 L 7.390625 0 L 2.546875 0 L 2.546875 -22.3125 L 7.390625 -22.3125 L 7.390625 -13.703125 L 15.78125 -13.703125 Z M 15.78125 -22.3125 "/></g></g></g></svg>