<svg xmlns="http://www.w3.org/2000/svg" xmlns:xlink="http://www.w3.org/1999/xlink" width="500" zoomAndPan="magnify" viewBox="0 0 375 374.999991" height="500" preserveAspectRatio="xMidYMid meet" version="1.2"><defs/><g id="003c85a5bb"><path style=" stroke:none;fill-rule:nonzero;fill:#0d72ff;fill-opacity:1;" d="M 48.660156 208.445312 C 44.105469 213.113281 37.015625 206.203125 41.570312 201.523438 C 46.121094 196.855469 53.210938 203.777344 48.660156 208.445312 Z M 152.09375 202.09375 C 150.128906 211.355469 146.175781 220.28125 140.230469 228.1875 C 144.210938 232.789062 138.332031 239.382812 133.308594 236.042969 C 128.167969 241.027344 122.417969 245.03125 116.308594 248.042969 C 118.375 256.574219 106.300781 260.78125 102.511719 252.976562 C 97.804688 254.125 92.949219 254.773438 88.011719 254.863281 C 85.460938 261.050781 76.304688 260.246094 74.8125 253.792969 C 68.222656 252.582031 61.550781 250.285156 55.722656 247.238281 C 50.035156 251.945312 41.734375 246.433594 43.992188 239.394531 C 36.734375 233.324219 30.90625 225.851562 26.789062 217.4375 C 19.328125 218.8125 15.476562 208.585938 22.097656 204.746094 C 20.285156 197.734375 19.597656 190.363281 20.195312 182.902344 C 12.457031 180.519531 14.40625 168.53125 22.796875 169.015625 C 26.761719 155.730469 34.53125 144.570312 44.566406 136.410156 C 40.203125 127.890625 51.261719 119.421875 58.300781 126.285156 C 58.644531 126.617188 58.9375 126.972656 59.21875 127.34375 C 69.839844 122.523438 81.761719 120.457031 93.878906 121.78125 C 96.136719 115.867188 105.035156 117.613281 104.910156 123.925781 C 108.109375 124.816406 111.257812 125.964844 114.320312 127.355469 C 117.355469 124.128906 122.582031 127.0625 121.601562 131.207031 C 123.335938 132.265625 125.042969 133.4375 126.714844 134.6875 C 130.679688 137.644531 134.367188 141.101562 137.566406 144.839844 C 141.035156 143.511719 144.324219 147.683594 142.082031 150.742188 C 144.390625 154.148438 146.351562 157.71875 147.972656 161.417969 C 153.761719 160.5625 156.605469 168.53125 151.441406 171.464844 C 152.855469 176.972656 153.558594 182.636719 153.546875 188.296875 C 161.492188 190.121094 160.242188 201.980469 152.09375 202.09375 Z M 135.425781 150.054688 C 132.785156 150.386719 130.144531 150.84375 127.53125 151.394531 C 127.644531 152.605469 127.503906 153.839844 127.109375 155 C 133.039062 157.308594 138.804688 160.230469 144.289062 163.738281 L 145.675781 162.347656 C 144.785156 160.320312 143.789062 158.332031 142.707031 156.40625 C 141.890625 154.964844 141.011719 153.546875 140.078125 152.171875 C 138.292969 152.707031 136.214844 151.8125 135.425781 150.054688 Z M 81.226562 179.832031 C 89.007812 182.636719 96.53125 186.460938 103.59375 191.320312 C 103.890625 191.066406 104.207031 190.847656 104.527344 190.667969 C 101.835938 183.246094 98.214844 176.082031 93.648438 169.386719 C 92.246094 170 90.589844 169.859375 89.289062 168.953125 C 86.226562 171.285156 83.28125 173.824219 80.464844 176.566406 C 81.074219 177.558594 81.328125 178.707031 81.226562 179.832031 Z M 110.53125 150.167969 C 110.671875 149.570312 110.890625 148.96875 111.171875 148.410156 C 103.683594 143.640625 95.6875 140.003906 87.4375 137.503906 C 85.640625 139.914062 83.96875 142.390625 82.425781 144.902344 C 83.613281 145.730469 84.53125 146.941406 84.964844 148.445312 C 93.519531 147.925781 102.117188 148.5 110.53125 150.167969 Z M 110.289062 152.566406 C 102.027344 150.894531 93.597656 150.320312 85.207031 150.84375 C 85.117188 151.964844 84.746094 153.0625 84.109375 154.046875 C 86.328125 156.289062 88.421875 158.609375 90.382812 161.007812 C 91.941406 160.472656 93.777344 160.804688 95.011719 162.054688 C 99.972656 158.929688 105.164062 156.277344 110.496094 154.109375 C 110.378906 153.613281 110.316406 153.089844 110.289062 152.566406 Z M 72.121094 152.566406 C 56.605469 155.675781 41.722656 162.640625 28.996094 173.402344 C 29.300781 174.128906 29.480469 174.90625 29.519531 175.6875 C 43.339844 173.109375 57.558594 173.46875 71.308594 176.847656 C 71.535156 176.414062 71.828125 176.003906 72.1875 175.648438 C 73.960938 173.835938 76.726562 173.570312 78.78125 174.871094 C 81.648438 172.078125 84.644531 169.488281 87.757812 167.117188 C 87.070312 165.585938 87.273438 163.738281 88.40625 162.398438 C 86.546875 160.128906 84.554688 157.921875 82.453125 155.792969 C 78.882812 158.382812 73.578125 156.710938 72.121094 152.566406 Z M 106.820312 189.941406 C 107.664062 189.851562 108.503906 189.957031 109.320312 190.222656 C 113.667969 180.8125 116.4375 170.851562 117.585938 160.753906 C 115.046875 160.359375 112.609375 158.675781 111.347656 156.351562 C 106.132812 158.46875 101.070312 161.058594 96.226562 164.132812 C 96.542969 165.394531 96.3125 166.757812 95.535156 167.867188 C 100.28125 174.820312 104.042969 182.242188 106.820312 189.941406 Z M 111.398438 191.449219 C 111.972656 191.96875 112.417969 192.582031 112.738281 193.234375 C 117.152344 191.320312 121.4375 189.074219 125.566406 186.488281 C 125.070312 177.738281 123.398438 169.066406 120.542969 160.703125 C 120.363281 160.742188 120.1875 160.765625 120.007812 160.792969 C 118.820312 171.3125 115.953125 181.679688 111.398438 191.449219 Z M 112.738281 198.421875 C 116.488281 201.699219 119.929688 205.207031 123.066406 208.890625 C 123.449219 208.726562 123.859375 208.636719 124.28125 208.613281 C 125.402344 202.199219 125.859375 195.707031 125.683594 189.242188 C 121.691406 191.664062 117.570312 193.78125 113.324219 195.59375 C 113.363281 196.5625 113.171875 197.53125 112.738281 198.421875 Z M 127.875 185.007812 C 131.90625 182.316406 135.769531 179.308594 139.417969 175.953125 C 135.222656 169.742188 130.234375 163.902344 124.609375 158.738281 C 124.050781 159.222656 123.449219 159.628906 122.8125 159.949219 C 125.582031 168.085938 127.277344 176.503906 127.875 185.007812 Z M 141.1875 174.28125 C 142.464844 173.058594 143.714844 171.796875 144.925781 170.484375 C 143.816406 169.324219 143.179688 167.703125 143.421875 166.007812 C 138.089844 162.5625 132.503906 159.695312 126.742188 157.425781 C 132.210938 162.539062 137.070312 168.238281 141.1875 174.28125 Z M 119.371094 134.039062 C 119.878906 137.25 120.238281 140.476562 120.429688 143.703125 C 123.285156 144.199219 125.898438 146.316406 126.96875 149.058594 C 129.6875 148.484375 132.414062 148.011719 135.15625 147.667969 C 135.246094 147.222656 135.425781 146.777344 135.679688 146.382812 C 131.332031 141.253906 126.152344 136.828125 120.414062 133.296875 C 120.097656 133.605469 119.753906 133.859375 119.371094 134.039062 Z M 103.863281 127.113281 C 108.519531 132.457031 112.496094 138.167969 115.8125 144.164062 C 116.527344 143.882812 117.265625 143.703125 118.03125 143.625 C 117.839844 140.554688 117.496094 137.503906 117.011719 134.457031 C 114.625 134.203125 112.878906 131.855469 113.273438 129.511719 C 110.429688 128.222656 107.460938 127.136719 104.375 126.257812 C 104.21875 126.550781 104.054688 126.84375 103.863281 127.113281 Z M 89.007812 135.476562 C 97.179688 138.042969 105.101562 141.6875 112.535156 146.417969 L 113.734375 145.324219 C 110.507812 139.480469 106.628906 133.921875 102.117188 128.730469 C 99.910156 130.019531 97.269531 129.5625 95.511719 128.054688 Z M 60.378906 129.496094 C 60.558594 129.980469 60.683594 130.480469 60.773438 130.988281 C 69.445312 131.105469 78.117188 132.355469 86.53125 134.75 L 94.019531 126.128906 C 93.738281 125.53125 93.570312 124.882812 93.519531 124.179688 C 82.234375 123.007812 70.835938 124.792969 60.378906 129.496094 Z M 60.070312 136.179688 C 64.929688 138.753906 69.625 141.753906 74.085938 145.195312 C 75.871094 143.664062 78.191406 143.308594 80.246094 143.882812 C 81.710938 141.472656 83.28125 139.113281 84.976562 136.804688 C 77.082031 134.636719 68.972656 133.5 60.851562 133.386719 C 60.761719 134.34375 60.492188 135.285156 60.070312 136.179688 Z M 25.21875 169.589844 L 27.695312 171.363281 C 40.714844 160.421875 55.914062 153.355469 71.742188 150.195312 C 71.765625 149.109375 72.046875 148.027344 72.582031 147.058594 C 68.183594 143.664062 63.554688 140.707031 58.746094 138.195312 C 55.40625 141.980469 49.5 142.097656 46.007812 138.4375 C 36.175781 146.523438 28.726562 157.910156 25.21875 169.589844 Z M 71.726562 182.484375 C 71 181.5 70.65625 180.328125 70.683594 179.15625 C 57.050781 175.8125 42.921875 175.519531 29.226562 178.171875 C 28.320312 181.21875 25.5 183.09375 22.582031 183.210938 C 22.03125 190.285156 22.671875 197.273438 24.367188 203.933594 C 31.75 202.65625 35.550781 212.707031 29.046875 216.582031 C 32.921875 224.449219 38.367188 231.464844 45.113281 237.203125 C 46.132812 235.8125 47.652344 234.765625 49.527344 234.382812 C 51.644531 215.804688 59.039062 197.695312 71.726562 182.484375 Z M 57.941406 239.113281 C 76.472656 231.640625 93.050781 217.78125 103.785156 200.488281 C 101.554688 198.742188 100.917969 195.65625 102.117188 193.21875 C 95.269531 188.527344 87.988281 184.828125 80.449219 182.113281 C 79.007812 184.445312 75.921875 185.25 73.550781 184.039062 C 61.257812 198.78125 54.066406 216.300781 51.9375 234.292969 C 54.601562 234.625 57.039062 236.566406 57.941406 239.113281 Z M 107.804688 201.726562 C 107.179688 201.765625 106.554688 201.714844 105.953125 201.546875 C 94.859375 219.515625 77.644531 233.859375 58.375 241.523438 C 58.390625 242.964844 58.007812 244.265625 57.332031 245.363281 C 62.648438 248.09375 68.691406 250.171875 74.671875 251.320312 C 75.78125 242.660156 88.816406 243.71875 88.507812 252.453125 C 93.035156 252.328125 97.5 251.726562 101.835938 250.679688 C 101.414062 246.84375 104.117188 242.902344 108.414062 242.46875 C 111.105469 229.003906 110.890625 215.101562 107.804688 201.726562 Z M 111.273438 242.75 C 116.5 234.332031 120.300781 225.292969 122.699219 215.96875 C 120.734375 214.910156 120.070312 212.308594 121.230469 210.449219 C 118.195312 206.878906 114.882812 203.5 111.257812 200.335938 C 110.902344 200.640625 110.519531 200.898438 110.113281 201.113281 C 113.273438 214.746094 113.53125 228.925781 110.839844 242.648438 C 110.980469 242.660156 111.132812 242.699219 111.273438 242.75 Z M 132.863281 227.574219 C 130.78125 223.671875 128.425781 219.871094 125.785156 216.238281 C 125.542969 216.3125 125.300781 216.378906 125.058594 216.402344 C 122.632812 225.941406 118.757812 235.199219 113.441406 243.820312 L 115.300781 245.785156 C 121.296875 242.8125 126.804688 238.925781 131.625 234.242188 C 130.402344 232.074219 130.859375 229.21875 132.863281 227.574219 Z M 149.628906 201.6875 C 144.863281 199.980469 143.421875 193.5 147.273438 189.96875 C 145.421875 185.886719 143.242188 181.871094 140.753906 177.992188 C 136.738281 181.640625 132.480469 184.90625 128.027344 187.789062 C 128.335938 194.929688 127.863281 202.109375 126.613281 209.199219 C 128.539062 210.382812 129.046875 213.035156 127.722656 214.835938 C 130.4375 218.585938 132.875 222.484375 135.003906 226.515625 C 136.0625 226.261719 137.183594 226.351562 138.203125 226.757812 C 143.574219 219.605469 147.652344 210.804688 149.628906 201.6875 Z M 151.085938 188.183594 C 151.085938 182.710938 150.394531 177.34375 149.070312 172.167969 C 148.328125 172.203125 147.601562 172.089844 146.953125 171.835938 C 145.523438 173.390625 144.046875 174.882812 142.539062 176.324219 C 145.117188 180.316406 147.386719 184.445312 149.3125 188.667969 C 149.886719 188.425781 150.484375 188.257812 151.085938 188.183594 Z M 138.996094 206.34375 C 135.691406 205.425781 134.300781 210.460938 137.605469 211.378906 C 140.894531 212.296875 142.296875 207.261719 138.996094 206.34375 Z M 89.222656 203.308594 C 93.484375 203.984375 94.515625 197.492188 90.257812 196.816406 C 85.996094 196.140625 84.964844 202.632812 89.222656 203.308594 Z M 89.808594 230.671875 C 84.417969 229.179688 82.132812 237.40625 87.539062 238.898438 C 92.933594 240.390625 95.203125 232.164062 89.808594 230.671875 Z M 64.484375 160.703125 C 59.945312 159.441406 58.019531 166.375 62.570312 167.640625 C 67.113281 168.890625 69.023438 161.953125 64.484375 160.703125 Z M 64.484375 160.703125 "/><path style="fill:none;stroke-width:4;stroke-linecap:butt;stroke-linejoin:miter;stroke:#0d72ff;stroke-opacity:1;stroke-miterlimit:4;" d="M -0.00024512 2.00212 L 193.593518 2.002119 " transform="matrix(0.000000001309,-0.75,0.75,0.000000001309,172.77966,261.054504)"/><g style="fill:#0d72ff;fill-opacity:1;"><g transform="translate(187.642199, 154.518044)"><path style="stroke:none" d="M 17.515625 -16.5625 L 34.40625 -16.5625 C 34.375 -14.0625 33.960938 -11.757812 33.171875 -9.65625 C 32.390625 -7.5625 31.28125 -5.742188 29.84375 -4.203125 C 28.414062 -2.671875 26.710938 -1.472656 24.734375 -0.609375 C 22.753906 0.242188 20.578125 0.671875 18.203125 0.671875 C 15.878906 0.671875 13.71875 0.265625 11.71875 -0.546875 C 9.726562 -1.359375 7.984375 -2.503906 6.484375 -3.984375 C 4.992188 -5.460938 3.84375 -7.210938 3.03125 -9.234375 C 2.21875 -11.253906 1.8125 -13.441406 1.8125 -15.796875 C 1.8125 -18.179688 2.207031 -20.375 3 -22.375 C 3.800781 -24.382812 4.929688 -26.132812 6.390625 -27.625 C 7.859375 -29.125 9.585938 -30.285156 11.578125 -31.109375 C 13.578125 -31.941406 15.738281 -32.359375 18.0625 -32.359375 C 20.6875 -32.359375 23.113281 -31.84375 25.34375 -30.8125 C 27.582031 -29.789062 29.453125 -28.375 30.953125 -26.5625 C 32.460938 -24.757812 33.460938 -22.664062 33.953125 -20.28125 L 26.890625 -20.28125 C 26.222656 -22 25.101562 -23.351562 23.53125 -24.34375 C 21.96875 -25.34375 20.191406 -25.84375 18.203125 -25.84375 C 16.328125 -25.84375 14.679688 -25.410156 13.265625 -24.546875 C 11.847656 -23.691406 10.738281 -22.515625 9.9375 -21.015625 C 9.132812 -19.523438 8.734375 -17.785156 8.734375 -15.796875 C 8.734375 -13.835938 9.125 -12.109375 9.90625 -10.609375 C 10.695312 -9.117188 11.800781 -7.953125 13.21875 -7.109375 C 14.632812 -6.265625 16.296875 -5.84375 18.203125 -5.84375 C 20.253906 -5.84375 22.09375 -6.335938 23.71875 -7.328125 C 25.34375 -8.328125 26.445312 -9.640625 27.03125 -11.265625 L 17.515625 -11.265625 Z M 17.515625 -16.5625 "/></g></g><g style="fill:#0d72ff;fill-opacity:1;"><g transform="translate(223.722019, 154.518044)"><path style="stroke:none" d="M 16.390625 0.671875 C 13.878906 0.671875 11.644531 0.140625 9.6875 -0.921875 C 7.726562 -1.992188 6.171875 -3.472656 5.015625 -5.359375 C 3.867188 -7.242188 3.296875 -9.425781 3.296875 -11.90625 L 3.296875 -31.6875 L 10.1875 -31.6875 L 10.1875 -12.21875 C 10.1875 -10.257812 10.765625 -8.695312 11.921875 -7.53125 C 13.085938 -6.375 14.578125 -5.796875 16.390625 -5.796875 C 18.222656 -5.796875 19.722656 -6.375 20.890625 -7.53125 C 22.054688 -8.695312 22.640625 -10.257812 22.640625 -12.21875 L 22.640625 -31.6875 L 29.46875 -31.6875 L 29.46875 -11.90625 C 29.46875 -9.425781 28.898438 -7.242188 27.765625 -5.359375 C 26.640625 -3.472656 25.085938 -1.992188 23.109375 -0.921875 C 21.128906 0.140625 18.890625 0.671875 16.390625 0.671875 Z M 16.390625 0.671875 "/></g></g><g style="fill:#0d72ff;fill-opacity:1;"><g transform="translate(256.497164, 154.518044)"><path style="stroke:none" d="M 10.5 -6.375 L 22.640625 -6.375 L 22.640625 0 L 3.625 0 L 3.625 -31.6875 L 10.5 -31.6875 Z M 10.5 -6.375 "/></g></g><g style="fill:#0d72ff;fill-opacity:1;"><g transform="translate(280.127863, 154.518044)"><path style="stroke:none" d="M 22.546875 -25.296875 L 10.5 -25.296875 L 10.5 -18.328125 L 21.359375 -18.328125 L 21.359375 -12.125 L 10.5 -12.125 L 10.5 0 L 3.625 0 L 3.625 -31.6875 L 22.546875 -31.6875 Z M 22.546875 -25.296875 "/></g></g><g style="fill:#0d72ff;fill-opacity:1;"><g transform="translate(187.642199, 200.358006)"><path style="stroke:none" d="M 17.515625 -16.5625 L 34.40625 -16.5625 C 34.375 -14.0625 33.960938 -11.757812 33.171875 -9.65625 C 32.390625 -7.5625 31.28125 -5.742188 29.84375 -4.203125 C 28.414062 -2.671875 26.710938 -1.472656 24.734375 -0.609375 C 22.753906 0.242188 20.578125 0.671875 18.203125 0.671875 C 15.878906 0.671875 13.71875 0.265625 11.71875 -0.546875 C 9.726562 -1.359375 7.984375 -2.503906 6.484375 -3.984375 C 4.992188 -5.460938 3.84375 -7.210938 3.03125 -9.234375 C 2.21875 -11.253906 1.8125 -13.441406 1.8125 -15.796875 C 1.8125 -18.179688 2.207031 -20.375 3 -22.375 C 3.800781 -24.382812 4.929688 -26.132812 6.390625 -27.625 C 7.859375 -29.125 9.585938 -30.285156 11.578125 -31.109375 C 13.578125 -31.941406 15.738281 -32.359375 18.0625 -32.359375 C 20.6875 -32.359375 23.113281 -31.84375 25.34375 -30.8125 C 27.582031 -29.789062 29.453125 -28.375 30.953125 -26.5625 C 32.460938 -24.757812 33.460938 -22.664062 33.953125 -20.28125 L 26.890625 -20.28125 C 26.222656 -22 25.101562 -23.351562 23.53125 -24.34375 C 21.96875 -25.34375 20.191406 -25.84375 18.203125 -25.84375 C 16.328125 -25.84375 14.679688 -25.410156 13.265625 -24.546875 C 11.847656 -23.691406 10.738281 -22.515625 9.9375 -21.015625 C 9.132812 -19.523438 8.734375 -17.785156 8.734375 -15.796875 C 8.734375 -13.835938 9.125 -12.109375 9.90625 -10.609375 C 10.695312 -9.117188 11.800781 -7.953125 13.21875 -7.109375 C 14.632812 -6.265625 16.296875 -5.84375 18.203125 -5.84375 C 20.253906 -5.84375 22.09375 -6.335938 23.71875 -7.328125 C 25.34375 -8.328125 26.445312 -9.640625 27.03125 -11.265625 L 17.515625 -11.265625 Z M 17.515625 -16.5625 "/></g></g><g style="fill:#0d72ff;fill-opacity:1;"><g transform="translate(223.722019, 200.358006)"><path style="stroke:none" d="M 16.390625 0.671875 C 13.878906 0.671875 11.644531 0.140625 9.6875 -0.921875 C 7.726562 -1.992188 6.171875 -3.472656 5.015625 -5.359375 C 3.867188 -7.242188 3.296875 -9.425781 3.296875 -11.90625 L 3.296875 -31.6875 L 10.1875 -31.6875 L 10.1875 -12.21875 C 10.1875 -10.257812 10.765625 -8.695312 11.921875 -7.53125 C 13.085938 -6.375 14.578125 -5.796875 16.390625 -5.796875 C 18.222656 -5.796875 19.722656 -6.375 20.890625 -7.53125 C 22.054688 -8.695312 22.640625 -10.257812 22.640625 -12.21875 L 22.640625 -31.6875 L 29.46875 -31.6875 L 29.46875 -11.90625 C 29.46875 -9.425781 28.898438 -7.242188 27.765625 -5.359375 C 26.640625 -3.472656 25.085938 -1.992188 23.109375 -0.921875 C 21.128906 0.140625 18.890625 0.671875 16.390625 0.671875 Z M 16.390625 0.671875 "/></g></g><g style="fill:#0d72ff;fill-opacity:1;"><g transform="translate(256.497164, 200.358006)"><path style="stroke:none" d="M 24.671875 0 L 22.453125 -6.015625 L 9.828125 -6.015625 L 7.65625 0 L 0.40625 0 L 12.8125 -31.6875 L 19.28125 -31.6875 L 32.09375 0 Z M 16.109375 -23.3125 L 12 -12 L 20.28125 -12 Z M 16.109375 -23.3125 "/></g></g><g style="fill:#0d72ff;fill-opacity:1;"><g transform="translate(289.000699, 200.358006)"><path style="stroke:none" d="M 21.046875 0 L 14.890625 -10.8125 L 10.5 -10.8125 L 10.5 0 L 3.625 0 L 3.625 -31.6875 L 16.4375 -31.6875 C 18.539062 -31.6875 20.421875 -31.234375 22.078125 -30.328125 C 23.742188 -29.421875 25.054688 -28.179688 26.015625 -26.609375 C 26.984375 -25.046875 27.46875 -23.238281 27.46875 -21.1875 C 27.46875 -19.132812 26.945312 -17.300781 25.90625 -15.6875 C 24.875 -14.070312 23.484375 -12.84375 21.734375 -12 L 28.75 0 Z M 10.5 -25.34375 L 10.5 -17.15625 L 15.984375 -17.15625 C 17.398438 -17.15625 18.515625 -17.539062 19.328125 -18.3125 C 20.140625 -19.082031 20.546875 -20.054688 20.546875 -21.234375 C 20.546875 -22.441406 20.140625 -23.425781 19.328125 -24.1875 C 18.515625 -24.957031 17.398438 -25.34375 15.984375 -25.34375 Z M 10.5 -25.34375 "/></g></g><g style="fill:#0d72ff;fill-opacity:1;"><g transform="translate(318.923864, 200.358006)"><path style="stroke:none" d="M 15.609375 -31.6875 C 17.941406 -31.6875 20.085938 -31.289062 22.046875 -30.5 C 24.003906 -29.71875 25.695312 -28.617188 27.125 -27.203125 C 28.5625 -25.785156 29.679688 -24.117188 30.484375 -22.203125 C 31.285156 -20.285156 31.6875 -18.179688 31.6875 -15.890625 C 31.6875 -13.597656 31.285156 -11.484375 30.484375 -9.546875 C 29.679688 -7.617188 28.5625 -5.9375 27.125 -4.5 C 25.695312 -3.070312 24.003906 -1.960938 22.046875 -1.171875 C 20.085938 -0.390625 17.941406 0 15.609375 0 L 3.625 0 L 3.625 -31.6875 Z M 15.4375 -6.375 C 17.25 -6.375 18.847656 -6.78125 20.234375 -7.59375 C 21.617188 -8.414062 22.703125 -9.539062 23.484375 -10.96875 C 24.273438 -12.40625 24.671875 -14.046875 24.671875 -15.890625 C 24.671875 -17.734375 24.273438 -19.363281 23.484375 -20.78125 C 22.703125 -22.195312 21.617188 -23.300781 20.234375 -24.09375 C 18.847656 -24.894531 17.25 -25.296875 15.4375 -25.296875 L 10.5 -25.296875 L 10.5 -6.375 Z M 15.4375 -6.375 "/></g></g><g style="fill:#0d72ff;fill-opacity:1;"><g transform="translate(187.642199, 246.197967)"><path style="stroke:none" d="M 25.484375 -31.6875 L 25.484375 -25.296875 L 16.65625 -25.296875 L 16.65625 0 L 9.78125 0 L 9.78125 -25.296875 L 1 -25.296875 L 1 -31.6875 Z M 25.484375 -31.6875 "/></g></g><g style="fill:#0d72ff;fill-opacity:1;"><g transform="translate(214.079608, 246.197967)"><path style="stroke:none" d="M 10.5 -6.375 L 23.125 -6.375 L 23.125 0 L 3.625 0 L 3.625 -31.6875 L 22.640625 -31.6875 L 22.640625 -25.34375 L 10.5 -25.34375 L 10.5 -19.109375 L 21.453125 -19.109375 L 21.453125 -12.90625 L 10.5 -12.90625 Z M 10.5 -6.375 "/></g></g><g style="fill:#0d72ff;fill-opacity:1;"><g transform="translate(239.385286, 246.197967)"><path style="stroke:none" d="M 18.15625 0.671875 C 15.832031 0.671875 13.671875 0.257812 11.671875 -0.5625 C 9.679688 -1.394531 7.945312 -2.554688 6.46875 -4.046875 C 4.988281 -5.546875 3.84375 -7.296875 3.03125 -9.296875 C 2.21875 -11.304688 1.8125 -13.472656 1.8125 -15.796875 C 1.8125 -18.148438 2.21875 -20.335938 3.03125 -22.359375 C 3.84375 -24.378906 4.988281 -26.132812 6.46875 -27.625 C 7.945312 -29.125 9.679688 -30.285156 11.671875 -31.109375 C 13.671875 -31.941406 15.832031 -32.359375 18.15625 -32.359375 C 20.71875 -32.359375 23.066406 -31.832031 25.203125 -30.78125 C 27.347656 -29.726562 29.144531 -28.25 30.59375 -26.34375 C 32.039062 -24.445312 33.007812 -22.242188 33.5 -19.734375 L 26.609375 -19.734375 C 25.984375 -21.609375 24.914062 -23.09375 23.40625 -24.1875 C 21.894531 -25.289062 20.144531 -25.84375 18.15625 -25.84375 C 16.375 -25.84375 14.769531 -25.394531 13.34375 -24.5 C 11.925781 -23.613281 10.800781 -22.414062 9.96875 -20.90625 C 9.144531 -19.40625 8.734375 -17.703125 8.734375 -15.796875 C 8.734375 -13.898438 9.144531 -12.203125 9.96875 -10.703125 C 10.800781 -9.210938 11.925781 -8.03125 13.34375 -7.15625 C 14.769531 -6.28125 16.375 -5.84375 18.15625 -5.84375 C 20.238281 -5.84375 22.03125 -6.429688 23.53125 -7.609375 C 25.039062 -8.785156 26.082031 -10.382812 26.65625 -12.40625 L 33.59375 -12.40625 C 33.101562 -9.78125 32.140625 -7.484375 30.703125 -5.515625 C 29.273438 -3.554688 27.484375 -2.035156 25.328125 -0.953125 C 23.171875 0.128906 20.78125 0.671875 18.15625 0.671875 Z M 18.15625 0.671875 "/></g></g><g style="fill:#0d72ff;fill-opacity:1;"><g transform="translate(274.288105, 246.197967)"><path style="stroke:none" d="M 22.40625 -31.6875 L 29.234375 -31.6875 L 29.234375 0 L 22.40625 0 L 22.40625 -13.078125 L 10.5 -13.078125 L 10.5 0 L 3.625 0 L 3.625 -31.6875 L 10.5 -31.6875 L 10.5 -19.46875 L 22.40625 -19.46875 Z M 22.40625 -31.6875 "/></g></g></g></svg>